<svg xmlns="http://www.w3.org/2000/svg" height="24" viewBox="0 -960 960 960" width="24"><path d="M480.068-485.385q29.855 0 51.047-21.26 21.192-21.26 21.192-51.115t-21.26-51.047q-21.26-21.192-51.115-21.192t-51.047 21.26q-21.192 21.26-21.192 51.115t21.26 51.047q21.26 21.192 51.115 21.192ZM480-179.461q117.384-105.076 179.654-201.577 62.269-96.5 62.269-169.039 0-109.384-69.5-179.846T480-800.385q-102.923 0-172.423 70.462t-69.5 179.846q0 72.539 62.269 169.039Q362.616-284.537 480-179.461Zm0 79.844Q329.001-230.463 253.539-343.154q-75.461-112.692-75.461-206.923 0-138.46 89.577-224.191Q357.231-859.999 480-859.999t212.345 85.731q89.577 85.731 89.577 224.191 0 94.231-75.461 206.923Q630.999-230.463 480-99.617Zm0-458.075Z"/></svg>