<svg xmlns="http://www.w3.org/2000/svg" height="24" viewBox="0 -960 960 960" width="24"><path d="M480-332.693q13.923 0 24.115-10.192 10.192-10.193 10.192-24.115 0-13.923-10.192-24.115-10.192-10.192-24.115-10.192-13.923 0-24.115 10.192-10.192 10.192-10.192 24.115 0 13.922 10.192 24.115 10.192 10.192 24.115 10.192ZM456.154-449.77h47.692q.384-17.076 2.077-26.923 1.692-9.846 5.461-17.23 4.77-8.385 12.654-17.462 7.885-9.077 24.116-25.308 20.23-20.23 29.961-39.884 9.731-19.654 9.731-41.038 0-43.539-29.654-69.692-29.654-26.154-76.653-26.154-37.539 0-66.808 20.5-29.269 20.5-41.038 55.038l43.23 17.769q8.538-22.616 25.308-34.731Q459-667 481.539-667q24.769 0 41.692 14.154 16.923 14.153 16.923 36.461 0 17.77-7.692 31.039-7.692 13.269-27.846 30.808-15.462 13.231-25.077 24.538-9.615 11.308-14.615 22.308-5 10.385-6.885 23.538-1.885 13.154-1.885 34.384ZM480-179.461q117.384-105.076 179.654-201.577 62.269-96.5 62.269-169.039 0-109.384-69.5-179.846T480-800.385q-102.923 0-172.423 70.462t-69.5 179.846q0 72.539 62.269 169.039Q362.616-284.537 480-179.461Zm0 79.844Q329.001-230.463 253.539-343.154q-75.461-112.692-75.461-206.923 0-138.46 89.577-224.191Q357.231-859.999 480-859.999t212.345 85.731q89.577 85.731 89.577 224.191 0 94.231-75.461 206.923Q630.999-230.463 480-99.617Zm0-458.075Z"/></svg>