<svg xmlns="http://www.w3.org/2000/svg" height="24" viewBox="0 -960 960 960" width="24"><path d="M501.537-530.001v-59.998H698.46v59.998H501.537Zm0-155.384v-59.999H818.46v59.999H501.537Zm-178.46 545.384q-74.922 0-127.46-52.538Q143.079-245.078 143.079-320q0-44.923 21-83.923 21-38.999 59-65.307V-720q0-41.922 29.038-70.961 29.038-29.038 70.96-29.038 41.923 0 70.961 29.038 29.038 29.039 29.038 70.961v250.77q38 26.308 59 65.307 21 39 21 83.923 0 74.922-52.538 127.461Q398-140.001 323.077-140.001ZM203.077-320h240q0-29.385-14.231-55.731t-40.692-45.654L363.077-440v-280q0-17-11.5-28.5t-28.5-11.5q-17 0-28.5 11.5t-11.5 28.5v280l-25.076 18.615q-26.462 19.308-40.693 45.654-14.231 26.346-14.231 55.731Z"/></svg>